<svg width="28" height="28" viewBox="0 0 28 28" fill="none" xmlns="http://www.w3.org/2000/svg">
<g clip-path="url(#clip0_207_23)">
<path d="M28 5.31639C26.9698 5.77373 25.8627 6.08173 24.7007 6.22056C25.8872 5.51006 26.7983 4.38423 27.2265 3.04256C26.117 3.70056 24.8873 4.17889 23.5783 4.43673C22.5318 3.32023 21.0373 2.62256 19.3853 2.62256C15.6765 2.62256 12.9512 6.08289 13.7888 9.67506C9.016 9.43589 4.78333 7.14923 1.9495 3.67373C0.4445 6.25556 1.169 9.63306 3.72633 11.3434C2.786 11.3131 1.89933 11.0552 1.12583 10.6247C1.06283 13.2859 2.97033 15.7756 5.733 16.3297C4.9245 16.5491 4.039 16.6004 3.13833 16.4277C3.86867 18.7097 5.98967 20.3699 8.505 20.4166C6.09 22.3101 3.04733 23.1559 0 22.7966C2.54217 24.4264 5.56267 25.3772 8.806 25.3772C19.4717 25.3772 25.4975 16.3694 25.1335 8.29023C26.2558 7.47939 27.23 6.46789 28 5.31639Z" fill="#CF83A8"/>
</g>
<defs>
<clipPath id="clip0_207_23">
<rect width="28" height="28" fill="white"/>
</clipPath>
</defs>
</svg>
