<svg id="visual" viewBox="0 0 1440 320" width="1440" height="320" xmlns="http://www.w3.org/2000/svg" xmlns:xlink="http://www.w3.org/1999/xlink" version="1.1"><path d="M0 33L21.8 32C43.7 31 87.3 29 131 27.3C174.7 25.7 218.3 24.3 262 23.7C305.7 23 349.3 23 393 25.2C436.7 27.3 480.3 31.7 524 37C567.7 42.3 611.3 48.7 654.8 52.5C698.3 56.3 741.7 57.7 785.2 57.7C828.7 57.7 872.3 56.3 916 55.2C959.7 54 1003.3 53 1047 51.5C1090.7 50 1134.3 48 1178 48.5C1221.7 49 1265.3 52 1309 47.7C1352.7 43.3 1396.3 31.7 1418.2 25.8L1440 20L1440 0L1418.2 0C1396.3 0 1352.7 0 1309 0C1265.3 0 1221.7 0 1178 0C1134.3 0 1090.7 0 1047 0C1003.3 0 959.7 0 916 0C872.3 0 828.7 0 785.2 0C741.7 0 698.3 0 654.8 0C611.3 0 567.7 0 524 0C480.3 0 436.7 0 393 0C349.3 0 305.7 0 262 0C218.3 0 174.7 0 131 0C87.3 0 43.7 0 21.8 0L0 0Z" fill="#009473"></path><path d="M0 81L21.8 80C43.7 79 87.3 77 131 75.3C174.7 73.7 218.3 72.3 262 67.5C305.7 62.7 349.3 54.3 393 53.8C436.7 53.3 480.3 60.7 524 65.5C567.7 70.3 611.3 72.7 654.8 74.3C698.3 76 741.7 77 785.2 77C828.7 77 872.3 76 916 78.7C959.7 81.3 1003.3 87.7 1047 86C1090.7 84.3 1134.3 74.7 1178 75.2C1221.7 75.7 1265.3 86.3 1309 86.3C1352.7 86.3 1396.3 75.7 1418.2 70.3L1440 65L1440 18L1418.2 23.8C1396.3 29.7 1352.7 41.3 1309 45.7C1265.3 50 1221.7 47 1178 46.5C1134.3 46 1090.7 48 1047 49.5C1003.3 51 959.7 52 916 53.2C872.3 54.3 828.7 55.7 785.2 55.7C741.7 55.7 698.3 54.3 654.8 50.5C611.3 46.7 567.7 40.3 524 35C480.3 29.7 436.7 25.3 393 23.2C349.3 21 305.7 21 262 21.7C218.3 22.3 174.7 23.7 131 25.3C87.3 27 43.7 29 21.8 30L0 31Z" fill="#007975"></path><path d="M0 116L21.8 115C43.7 114 87.3 112 131 108.3C174.7 104.7 218.3 99.3 262 91.3C305.7 83.3 349.3 72.7 393 71.5C436.7 70.3 480.3 78.7 524 84C567.7 89.3 611.3 91.7 654.8 93.8C698.3 96 741.7 98 785.2 101.7C828.7 105.3 872.3 110.7 916 116.5C959.7 122.3 1003.3 128.7 1047 125C1090.7 121.3 1134.3 107.7 1178 104C1221.7 100.3 1265.3 106.7 1309 108.8C1352.7 111 1396.3 109 1418.2 108L1440 107L1440 63L1418.2 68.3C1396.3 73.7 1352.7 84.3 1309 84.3C1265.3 84.3 1221.7 73.7 1178 73.2C1134.3 72.7 1090.7 82.3 1047 84C1003.3 85.7 959.7 79.3 916 76.7C872.3 74 828.7 75 785.2 75C741.7 75 698.3 74 654.8 72.3C611.3 70.7 567.7 68.3 524 63.5C480.3 58.7 436.7 51.3 393 51.8C349.3 52.3 305.7 60.7 262 65.5C218.3 70.3 174.7 71.7 131 73.3C87.3 75 43.7 77 21.8 78L0 79Z" fill="#005e6a"></path><path d="M0 151L21.8 149.5C43.7 148 87.3 145 131 143.5C174.7 142 218.3 142 262 143.5C305.7 145 349.3 148 393 152.8C436.7 157.7 480.3 164.3 524 160.7C567.7 157 611.3 143 654.8 137C698.3 131 741.7 133 785.2 141.5C828.7 150 872.3 165 916 175.7C959.7 186.3 1003.3 192.7 1047 185.2C1090.7 177.7 1134.3 156.3 1178 153.7C1221.7 151 1265.3 167 1309 172.3C1352.7 177.7 1396.3 172.3 1418.2 169.7L1440 167L1440 105L1418.2 106C1396.3 107 1352.7 109 1309 106.8C1265.3 104.7 1221.7 98.3 1178 102C1134.3 105.7 1090.7 119.3 1047 123C1003.3 126.7 959.7 120.3 916 114.5C872.3 108.7 828.7 103.3 785.2 99.7C741.7 96 698.3 94 654.8 91.8C611.3 89.7 567.7 87.3 524 82C480.3 76.7 436.7 68.3 393 69.5C349.3 70.7 305.7 81.3 262 89.3C218.3 97.3 174.7 102.7 131 106.3C87.3 110 43.7 112 21.8 113L0 114Z" fill="#004355"></path><path d="M0 270L21.8 262C43.7 254 87.3 238 131 238C174.7 238 218.3 254 262 258.8C305.7 263.7 349.3 257.3 393 257.3C436.7 257.3 480.3 263.7 524 261.5C567.7 259.3 611.3 248.7 654.8 245.5C698.3 242.3 741.7 246.7 785.2 248.8C828.7 251 872.3 251 916 252.5C959.7 254 1003.3 257 1047 252.2C1090.7 247.3 1134.3 234.7 1178 233.7C1221.7 232.7 1265.3 243.3 1309 251.3C1352.7 259.3 1396.3 264.7 1418.2 267.3L1440 270L1440 165L1418.2 167.7C1396.3 170.3 1352.7 175.7 1309 170.3C1265.3 165 1221.7 149 1178 151.7C1134.3 154.3 1090.7 175.7 1047 183.2C1003.3 190.7 959.7 184.3 916 173.7C872.3 163 828.7 148 785.2 139.5C741.7 131 698.3 129 654.8 135C611.3 141 567.7 155 524 158.7C480.3 162.3 436.7 155.7 393 150.8C349.3 146 305.7 143 262 141.5C218.3 140 174.7 140 131 141.5C87.3 143 43.7 146 21.8 147.5L0 149Z" fill="#03293c"></path><path d="M0 321L21.8 321C43.7 321 87.3 321 131 321C174.7 321 218.3 321 262 321C305.7 321 349.3 321 393 321C436.7 321 480.3 321 524 321C567.7 321 611.3 321 654.8 321C698.3 321 741.7 321 785.2 321C828.7 321 872.3 321 916 321C959.7 321 1003.3 321 1047 321C1090.7 321 1134.3 321 1178 321C1221.7 321 1265.3 321 1309 321C1352.7 321 1396.3 321 1418.2 321L1440 321L1440 268L1418.2 265.3C1396.3 262.7 1352.7 257.3 1309 249.3C1265.3 241.3 1221.7 230.7 1178 231.7C1134.3 232.7 1090.7 245.3 1047 250.2C1003.3 255 959.7 252 916 250.5C872.3 249 828.7 249 785.2 246.8C741.7 244.7 698.3 240.3 654.8 243.5C611.3 246.7 567.7 257.3 524 259.5C480.3 261.7 436.7 255.3 393 255.3C349.3 255.3 305.7 261.7 262 256.8C218.3 252 174.7 236 131 236C87.3 236 43.7 252 21.8 260L0 268Z" fill="#001122"></path></svg>