<svg id="visual" viewBox="0 0 900 600" width="900" height="600" xmlns="http://www.w3.org/2000/svg" xmlns:xlink="http://www.w3.org/1999/xlink" version="1.1"><path d="M0 359L37.5 363.3C75 367.7 150 376.3 225 378.2C300 380 375 375 450 368.2C525 361.3 600 352.7 675 349.5C750 346.3 825 348.7 862.5 349.8L900 351L900 601L862.5 601C825 601 750 601 675 601C600 601 525 601 450 601C375 601 300 601 225 601C150 601 75 601 37.5 601L0 601Z" fill="#69c1fa"></path><path d="M0 427L37.5 425.8C75 424.7 150 422.3 225 419.3C300 416.3 375 412.7 450 409C525 405.3 600 401.7 675 408.3C750 415 825 432 862.5 440.5L900 449L900 601L862.5 601C825 601 750 601 675 601C600 601 525 601 450 601C375 601 300 601 225 601C150 601 75 601 37.5 601L0 601Z" fill="#94cef9"></path><path d="M0 433L37.5 438.3C75 443.7 150 454.3 225 456.2C300 458 375 451 450 448.5C525 446 600 448 675 454.2C750 460.3 825 470.7 862.5 475.8L900 481L900 601L862.5 601C825 601 750 601 675 601C600 601 525 601 450 601C375 601 300 601 225 601C150 601 75 601 37.5 601L0 601Z" fill="#b7dbf8"></path><path d="M0 536L37.5 532.8C75 529.7 150 523.3 225 514.7C300 506 375 495 450 487.8C525 480.7 600 477.3 675 478C750 478.7 825 483.3 862.5 485.7L900 488L900 601L862.5 601C825 601 750 601 675 601C600 601 525 601 450 601C375 601 300 601 225 601C150 601 75 601 37.5 601L0 601Z" fill="#d7e8f7"></path><path d="M0 572L37.5 569.3C75 566.7 150 561.3 225 554.7C300 548 375 540 450 543.8C525 547.7 600 563.3 675 561.7C750 560 825 541 862.5 531.5L900 522L900 601L862.5 601C825 601 750 601 675 601C600 601 525 601 450 601C375 601 300 601 225 601C150 601 75 601 37.5 601L0 601Z" fill="#f5f5f5"></path></svg>